Coordinates
version=1
nRows=13
nColumns=38
inDegrees=no

Units are S.I. units (second, meters, Newtons, ...)
If the header above contains a line with 'inDegrees', this indicates whether rotational values are in degrees (yes) or radians (no).

endheader
time	pelvis_tilt	pelvis_list	pelvis_rotation	pelvis_tx	pelvis_ty	pelvis_tz	hip_flexion_r	hip_adduction_r	hip_rotation_r	knee_angle_r	ankle_angle_r	subtalar_angle_r	mtp_angle_r	hip_flexion_l	hip_adduction_l	hip_rotation_l	knee_angle_l	ankle_angle_l	subtalar_angle_l	mtp_angle_l	lumbar_extension	lumbar_bending	lumbar_rotation	arm_flex_r	arm_add_r	arm_rot_r	elbow_flex_r	pro_sup_r	wrist_flex_r	wrist_dev_r	arm_flex_l	arm_add_l	arm_rot_l	elbow_flex_l	pro_sup_l	wrist_flex_l	wrist_dev_l
0	1.94546	1.51418	-0.395436	0.830528	-0.479686	0.996897	-0.112581	0.0558599	-0.293578	0.295446	0.232344	0	0	0.507998	-0.100164	-0.189249	0.547592	0.0742621	0	0	-0.328261	0.0330546	0.0677286	0.00835236	-0.183552	0.0084784	0.374885	1.41602	0	0	0.10232	-0.311695	0.576464	0.423155	1.06336	0	0
0.01	1.91547	1.51651	-0.367823	0.830425	-0.469824	0.995404	-0.12295	0.0537208	-0.290383	0.291748	0.236494	0	0	0.50807	-0.0972363	-0.204407	0.510863	0.0779885	0	0	-0.325674	0.0321963	0.0665593	0.00917987	-0.184153	0.0131918	0.373812	1.41595	0	0	0.0993822	-0.312044	0.575933	0.424408	1.0601	0	0
0.02	1.97839	1.51569	-0.434646	0.831482	-0.459712	0.994557	-0.140933	0.0540031	-0.284853	0.28579	0.23493	0	0	0.505779	-0.0999876	-0.228981	0.488165	0.083201	0	0	-0.329611	0.0296683	0.0685868	0.0092462	-0.182139	0.015714	0.372874	1.4144	0	0	0.097489	-0.315578	0.576565	0.427564	1.05776	0	0
0.03	1.92194	1.52065	-0.375631	0.82969	-0.449247	0.99251	-0.145687	0.0473367	-0.289492	0.289948	0.239249	0	0	0.507193	-0.0894926	-0.228788	0.45571	0.0854086	0	0	-0.323621	0.0304557	0.0645608	0.00558447	-0.186048	0.0180997	0.376406	1.41257	0	0	0.0948198	-0.313483	0.578317	0.428686	1.05545	0	0
0.04	2.07161	1.53322	-0.521678	0.828906	-0.440262	0.992247	-0.153413	0.0295866	-0.296913	0.297751	0.245434	0	0	0.504704	-0.0746261	-0.253693	0.432014	0.0789428	0	0	-0.328135	0.0173474	0.0560328	0.00864989	-0.183824	0.0199214	0.376225	1.41052	0	0	0.0978304	-0.316008	0.579406	0.42911	1.05384	0	0
0.05	1.88731	1.54925	-0.340654	0.829245	-0.429718	0.98904	-0.156355	0.0172068	-0.296334	0.290795	0.259018	0	0	0.514765	-0.0593654	-0.249983	0.413335	0.0802459	0	0	-0.311803	0.00302835	0.0557187	0.00176048	-0.180776	0.0198323	0.377055	1.4094	0	0	0.0917294	-0.321735	0.580182	0.434862	1.05281	0	0
0.06	1.69986	1.54832	-0.159667	0.829071	-0.417398	0.986242	-0.160793	0.0172137	-0.285218	0.300838	0.269019	0	0	0.512881	-0.0539681	-0.217564	0.393438	0.0868933	0	0	-0.300527	0.00479301	0.0629996	-0.00923067	-0.183224	0.0214204	0.380739	1.40869	0	0	0.0825321	-0.322613	0.582697	0.439628	1.05052	0	0
0.07	2.4205	1.54235	-0.87206	0.827531	-0.407668	0.988712	-0.181132	0.00851188	-0.285071	0.323168	0.254043	0	0	0.49039	-0.0446296	-0.21947	0.380531	0.0743945	0	0	-0.327001	0.00409077	0.0542921	-0.0028553	-0.183246	0.0227795	0.37767	1.4063	0	0	0.0908862	-0.320494	0.584883	0.434773	1.04796	0	0
0.08	2.44573	1.53508	-0.903001	0.827357	-0.394285	0.987002	-0.197941	0.00874392	-0.295014	0.329776	0.263342	0	0	0.46933	-0.0390982	-0.180472	0.354747	0.0829316	0	0	-0.324833	0.00787922	0.0625715	-0.0136756	-0.185412	0.0226078	0.378701	1.40473	0	0	0.0821786	-0.318556	0.584213	0.434002	1.0477	0	0
0.09	2.81473	1.53794	-1.2696	0.826833	-0.383499	0.986774	-0.205509	-0.0076881	-0.301195	0.345076	0.265408	0	0	0.463944	-0.0239343	-0.181777	0.354906	0.0783036	0	0	-0.32865	-0.00502897	0.0569892	-0.0148027	-0.182063	0.0215177	0.376825	1.40294	0	0	0.0821311	-0.320559	0.584698	0.432435	1.04804	0	0
0.1	-2.43845	1.54595	-2.30538	0.826146	-0.372226	0.984478	-0.203381	-0.050429	-0.314481	0.351263	0.285831	0	0	0.482313	-0.0135353	-0.239096	0.377825	0.0829913	0	0	-0.311599	-0.0350821	0.0529896	-0.0196796	-0.175702	0.0169277	0.373761	1.40244	0	0	0.0748089	-0.327055	0.583719	0.437093	1.04921	0	0
0.11	-3.09548	1.53152	-1.65603	0.82568	-0.357859	0.985035	-0.225126	-0.0442863	-0.312439	0.380541	0.281385	0	0	0.456387	-0.027562	-0.232911	0.394212	0.095384	0	0	-0.324808	-0.020535	0.0650336	-0.0303499	-0.180834	0.0125459	0.375568	1.40316	0	0	0.0654249	-0.321274	0.581111	0.4366	1.05026	0	0
0.12	-2.99793	1.52821	-1.75874	0.825336	-0.345085	0.983907	-0.228751	-0.0543873	-0.307423	0.404388	0.279778	0	0	0.449721	-0.0235485	-0.23272	0.409252	0.0949104	0	0	-0.321399	-0.0266199	0.0694861	-0.0401961	-0.180419	0.00847689	0.377942	1.40366	0	0	0.0572759	-0.322052	0.578016	0.438649	1.05258	0	0
